<svg version="1.1" id="Layer_1" xmlns="http://www.w3.org/2000/svg" xmlns:xlink="http://www.w3.org/1999/xlink" x="0px" y="0px"
	 width="100%" viewBox="0 0 1024 1024" enable-background="new 0 0 1024 1024" xml:space="preserve">
<path fill="#000000" opacity="1.000000" stroke="none" 
	d="
M310.641357,353.917877 
	C311.373871,347.856537 314.402069,344.829834 320.297424,343.858398 
	C333.311798,341.713928 345.514526,347.229156 352.349365,358.429474 
	C358.812195,369.020203 363.880096,380.162842 366.010468,392.518616 
	C366.902435,397.691833 371.955017,400.042542 376.836761,398.051056 
	C389.084259,393.054749 399.542023,384.776978 411.569061,379.345032 
	C435.779877,368.410431 461.102081,361.967621 487.531891,359.621735 
	C505.964386,357.985626 524.391479,357.086853 542.875305,358.722900 
	C578.493774,361.875610 612.412415,370.417633 642.844727,390.082489 
	C645.939697,392.082428 649.091431,394.109131 652.804260,394.489899 
	C655.714478,394.788300 659.333374,396.053162 660.199524,391.134521 
	C660.476685,389.560150 662.409180,389.233765 663.816406,388.798492 
	C669.371643,387.080109 672.675049,383.306152 674.571777,377.890289 
	C678.323914,367.176086 682.568604,356.648346 689.575867,347.562531 
	C695.154053,340.329834 701.430481,334.219513 711.294128,332.962921 
	C722.444641,331.542419 731.658630,340.558105 730.729980,351.819763 
	C729.567627,365.915802 722.597351,377.291290 714.513611,388.853149 
	C717.654114,390.099792 720.573120,389.592468 723.440979,389.464783 
	C726.266724,389.338959 729.097534,388.957031 731.913574,389.053833 
	C739.914978,389.328918 743.227356,392.372955 744.195618,400.301147 
	C745.335999,409.638245 742.150146,417.242889 734.939880,423.314667 
	C727.441528,429.628998 718.241333,432.131439 709.269592,435.178375 
	C706.612732,436.080658 703.909790,436.847168 701.021912,437.739594 
	C701.384521,440.569366 703.596130,441.811584 704.890381,443.622375 
	C706.434937,445.783386 709.090942,447.738556 709.431580,450.052795 
	C710.213806,455.367767 713.864380,455.901703 717.811340,456.726410 
	C726.631531,458.569397 734.254211,462.667358 741.235352,468.422455 
	C749.114624,474.918030 753.096191,491.183563 744.923462,500.439056 
	C741.044556,504.831696 738.811340,510.778687 732.471741,512.817627 
	C730.536926,513.439941 731.254333,515.712830 731.251831,517.293152 
	C731.235168,527.624268 731.398254,537.956604 731.297546,548.286560 
	C731.110962,567.423462 723.923218,584.272278 714.010315,600.191223 
	C713.748535,600.611633 713.436768,601.277832 713.083435,601.323120 
	C707.020142,602.099976 706.705322,607.741333 704.419067,611.624268 
	C701.267517,616.976990 697.434082,621.766907 693.233643,626.296326 
	C692.668396,626.905823 692.092957,627.856140 691.417603,627.958740 
	C684.806519,628.962219 683.362854,635.114197 680.006592,639.305237 
	C668.437561,653.751892 653.095947,662.975769 636.674194,670.656250 
	C595.109619,690.095947 551.185974,698.352234 505.571350,695.984619 
	C464.514191,693.853638 425.244415,684.228149 389.870087,662.132812 
	C383.101196,657.904907 376.676086,653.100037 370.278473,648.312561 
	C365.040497,644.393005 359.523376,641.042542 353.528137,638.456726 
	C350.549957,637.172119 346.906830,636.671326 346.444366,632.424561 
	C346.428864,632.281799 346.284729,632.060181 346.166321,632.034851 
	C341.273224,630.984985 339.015991,626.253784 335.405518,623.988647 
	C319.099792,613.758606 310.897400,598.590149 306.680603,580.703796 
	C303.470795,567.088867 304.208679,553.229980 305.492432,539.450500 
	C306.481689,528.832275 304.325378,519.884277 294.185913,514.407532 
	C289.028198,511.621674 288.776428,506.366974 287.812164,501.520111 
	C287.523987,500.071442 287.741241,498.527985 287.658386,497.031738 
	C287.162964,488.085724 288.002106,479.748871 296.237946,473.932465 
	C303.208527,469.009674 310.003448,463.856720 319.069000,463.838562 
	C321.624451,463.833466 322.890594,462.694458 323.911957,460.428436 
	C329.587677,447.835938 329.655853,447.825989 317.404602,441.524963 
	C307.418854,436.389099 299.535706,429.267944 293.281250,419.723633 
	C286.894867,409.978027 294.155579,396.478363 306.306122,395.720062 
	C310.920990,395.432037 315.204742,396.551422 320.325592,398.556244 
	C314.288025,383.966125 308.554688,369.942719 310.641357,353.917877 
M504.313202,512.283325 
	C504.959076,513.810730 505.499847,515.335449 507.191650,516.177490 
	C514.170288,519.651001 523.969360,517.311707 528.644470,511.047791 
	C532.441467,505.960541 535.684265,500.529388 538.845825,495.040802 
	C542.367554,488.926849 546.874451,483.615570 551.992188,478.777893 
	C554.791626,476.131653 558.854248,474.510223 559.068909,469.683868 
	C559.127319,468.369934 560.945007,467.993408 562.230286,467.585938 
	C569.073792,465.416260 575.582458,462.429016 582.106689,459.470184 
	C602.275513,450.323181 623.793396,448.356689 645.523743,447.990356 
	C656.673279,447.802399 667.836853,448.409271 678.993286,448.691833 
	C681.903809,448.765533 684.486328,447.868408 685.645081,445.194763 
	C686.659607,442.853638 684.063660,441.774933 682.803467,440.442902 
	C648.613281,404.303314 605.405212,384.359589 557.634338,375.423859 
	C522.183899,368.792694 486.323029,373.021973 451.171448,381.782562 
	C429.372894,387.215302 408.006348,393.560394 389.742950,407.167236 
	C378.158295,415.798218 365.093353,423.114929 358.793396,437.269836 
	C358.675201,437.535400 358.310852,437.832001 358.032043,437.864807 
	C351.201508,438.668243 349.874237,445.076050 346.471802,449.316742 
	C345.075714,451.056793 342.862274,453.094666 344.002380,455.468719 
	C345.246399,458.059143 348.184631,456.862732 350.377777,456.776764 
	C374.009613,455.850525 397.617035,454.159393 421.293091,454.701233 
	C431.684967,454.939087 442.283020,455.464783 451.530914,460.271759 
	C474.106293,472.006256 493.499329,487.361237 504.313202,512.283325 
M604.830261,477.343689 
	C590.943359,479.810913 578.484131,485.511902 567.382568,494.139191 
	C562.109253,498.237183 556.902710,502.488953 555.590759,509.665741 
	C555.416260,510.620117 555.111572,511.878967 553.998657,512.003784 
	C550.008179,512.451416 549.686523,515.629028 548.980957,518.496460 
	C547.829895,523.174133 546.578491,527.839050 545.708984,532.571716 
	C543.345886,545.433044 542.850525,558.790527 549.184814,570.194458 
	C559.516602,588.795410 573.803162,604.098572 594.013428,612.798218 
	C610.900757,620.067505 628.507751,620.361328 645.951599,616.806824 
	C658.281494,614.294373 671.317749,611.578552 678.855957,599.322632 
	C679.168213,598.815063 679.925537,598.554993 680.510193,598.245178 
	C693.420227,591.402039 699.333496,579.247864 703.636780,566.365784 
	C706.286560,558.433533 705.430786,549.829102 704.339478,541.571899 
	C703.242981,533.275208 699.513367,525.709839 696.832336,517.844543 
	C694.046631,509.672119 687.827576,504.047607 681.977905,499.235870 
	C659.947876,481.114807 634.465149,472.969177 604.830261,477.343689 
M447.234985,491.269043 
	C440.456085,487.696716 433.721436,484.034668 425.871460,483.300415 
	C418.404388,482.601898 410.916931,482.529785 403.430756,482.252563 
	C382.633118,481.482391 365.092834,489.201843 349.479431,502.226593 
	C345.799774,505.296173 345.304291,511.372620 339.714233,512.686340 
	C328.287415,531.933411 324.931824,552.764404 332.604614,573.578613 
	C340.946320,596.207397 359.115997,611.408447 381.033508,619.219116 
	C411.347168,630.021790 440.481354,624.853760 465.944061,604.032654 
	C495.241364,580.075867 494.000061,540.965271 477.057648,517.748535 
	C469.162079,506.928925 459.391998,498.335358 447.234985,491.269043 
M611.942688,665.382874 
	C618.910339,662.201172 625.635010,658.187012 632.911377,656.063049 
	C640.784424,653.764893 641.886292,643.720337 651.663147,643.231079 
	C647.438599,640.956177 644.384827,641.113831 641.469055,641.357910 
	C631.336548,642.206055 621.187927,642.776672 611.040039,642.261780 
	C593.936035,641.393860 577.913818,636.909119 563.687683,626.999756 
	C561.228027,625.286560 558.899536,623.376099 556.381104,621.758057 
	C551.593994,618.682739 548.789612,619.770935 547.206665,625.105896 
	C544.789368,633.252747 541.133545,640.972839 538.410828,648.947632 
	C535.290649,658.086609 529.507263,660.588013 520.894470,660.799561 
	C512.823181,660.997864 506.214752,659.146790 501.723694,651.851074 
	C495.912109,642.410217 491.842987,632.254517 488.538147,621.732239 
	C486.552063,615.408752 485.235535,614.943542 480.316467,619.709351 
	C464.647186,634.890503 445.562714,642.794678 424.427948,646.377869 
	C416.315430,647.753296 408.133972,648.722168 399.788544,649.903931 
	C401.016449,652.922424 403.324707,654.368225 405.366394,655.999573 
	C414.468292,663.272217 424.814056,668.285461 435.854980,671.681396 
	C469.400757,681.999268 503.488495,686.737732 538.720093,682.933228 
	C563.713928,680.234253 588.016296,675.439453 611.942688,665.382874 
M531.510193,630.998413 
	C535.477539,623.710571 537.536011,616.112000 535.459900,607.290710 
	C531.192993,611.919250 528.044128,617.419495 521.241882,617.585388 
	C520.994568,617.095276 520.722168,616.804688 520.718506,616.510620 
	C520.668640,612.520508 520.965027,608.497314 520.548462,604.548462 
	C520.122375,600.509399 521.701538,598.578064 525.362427,597.162354 
	C531.399658,594.827942 531.317444,594.602295 528.706726,588.650513 
	C527.838379,586.670959 527.058167,584.641052 526.035034,582.743469 
	C523.565063,578.162415 519.844788,575.148560 514.306702,573.786072 
	C510.791931,580.730774 507.266510,587.496094 503.944519,594.359863 
	C502.628571,597.078735 503.509003,599.165039 506.833038,598.847595 
	C512.287476,598.326660 513.244202,601.497192 513.360840,605.856873 
	C513.422607,608.165222 513.902161,610.467407 514.261536,612.761719 
	C514.886597,616.752075 513.537170,618.751038 509.188934,618.354858 
	C507.508606,618.201782 504.986511,617.601990 504.496368,619.970886 
	C503.674255,623.944519 503.817200,629.863037 506.207428,631.260315 
	C510.834351,633.965332 510.845306,637.988892 512.373596,641.759521 
	C515.310608,649.006042 519.876404,649.729004 524.563660,643.376953 
	C527.204346,639.798340 528.985840,635.585815 531.510193,630.998413 
M516.486694,541.845154 
	C513.556580,541.448486 512.126648,542.513672 512.307434,545.680298 
	C512.487610,548.835571 512.411621,552.010681 512.330322,555.174133 
	C512.263306,557.784241 513.530762,558.636292 515.998901,558.691284 
	C518.792297,558.753540 521.224060,557.745789 520.415833,554.897949 
	C519.187988,550.571533 524.694336,544.521423 516.486694,541.845154 
z"/>
<path fill="#000000" opacity="1.000000" stroke="none" 
	d="
M502.194489,456.247009 
	C502.600250,460.293030 503.237305,463.914764 503.250824,467.538788 
	C503.278503,474.967712 499.541260,479.131012 493.259094,479.162079 
	C485.954895,479.198181 479.890686,474.014313 479.959259,467.249634 
	C480.004303,462.806885 480.411316,458.242798 482.448212,454.154449 
	C484.197205,450.644073 485.794952,446.462799 490.741272,446.777161 
	C496.634796,447.151764 500.730560,450.660156 502.194489,456.247009 
z"/>
<path fill="#000000" opacity="1.000000" stroke="none" 
	d="
M460.934723,433.238434 
	C454.055756,432.810516 449.251495,428.257507 448.788879,421.937531 
	C448.364563,416.141052 450.043182,410.688934 452.361450,405.516846 
	C454.162720,401.498199 463.287598,401.566040 466.879242,405.389221 
	C472.177124,411.028503 473.704803,422.921753 469.814697,429.769592 
	C467.987854,432.985443 464.261261,432.247314 460.934723,433.238434 
z"/>
<path fill="#000000" opacity="1.000000" stroke="none" 
	d="
M524.368652,426.317596 
	C524.232727,422.555603 523.919312,419.210968 524.128845,415.899353 
	C524.484436,410.275909 528.479797,406.273468 533.815552,405.767120 
	C538.659912,405.307373 543.542664,408.765167 545.135620,413.847412 
	C546.711548,418.875122 546.639160,424.070862 546.205139,429.209564 
	C545.857300,433.327087 540.989929,436.343170 535.535217,436.304626 
	C529.070923,436.258942 525.269775,432.989563 524.368652,426.317596 
z"/>
<path fill="#000000" opacity="1.000000" stroke="none" 
	d="
M518.566223,458.445618 
	C507.888916,458.384521 504.817841,455.256622 504.575531,444.923035 
	C504.468842,440.372162 504.884125,436.026062 507.092804,431.911530 
	C508.559967,429.178406 510.370056,427.679169 513.694153,427.639679 
	C521.649048,427.545288 524.794250,430.058624 526.015869,439.107727 
	C526.587891,443.344788 526.419922,447.748627 526.038452,452.027985 
	C525.683594,456.008759 523.799438,459.030457 518.566223,458.445618 
z"/>
<path fill="#000000" opacity="1.000000" stroke="none" 
	d="
M535.663452,455.083801 
	C535.666687,453.779083 535.691162,452.947601 535.670471,452.117279 
	C535.562195,447.767212 537.076477,443.647003 541.061951,442.281647 
	C544.576904,441.077423 548.347595,440.607025 551.969360,444.866974 
	C557.768799,451.688446 559.707703,460.616364 555.620850,467.963104 
	C552.484009,473.602051 547.579712,472.668610 542.986389,472.046051 
	C538.511963,471.439606 536.458435,467.723969 535.844849,463.521912 
	C535.463989,460.913940 535.703003,458.215485 535.663452,455.083801 
z"/>
<path fill="#000000" opacity="1.000000" stroke="none" 
	d="
M502.225647,404.623413 
	C498.661072,396.712524 500.692871,389.161957 502.734741,381.886139 
	C504.090118,377.056488 515.242981,376.443573 518.118835,380.864899 
	C522.768188,388.012909 523.154907,396.007233 520.887146,403.901276 
	C519.896179,407.350952 516.270813,408.985901 512.533752,409.267883 
	C508.450012,409.576019 504.393341,409.683105 502.225647,404.623413 
z"/>
<path fill="#000000" opacity="1.000000" stroke="none" 
	d="
M498.845459,413.347351 
	C503.191742,420.482239 500.905060,427.889801 500.931732,435.080200 
	C500.934082,435.715546 500.099915,436.637909 499.432251,436.946320 
	C494.660767,439.150391 489.654877,439.048340 484.877777,437.334351 
	C480.815521,435.876801 479.626617,432.398865 479.497375,428.115875 
	C479.346588,423.119995 478.385254,418.156433 481.124695,413.509308 
	C484.357635,408.024872 486.724609,407.195251 492.518250,409.656281 
	C494.661163,410.566589 496.861755,411.389191 498.845459,413.347351 
z"/>
<path fill="#000000" opacity="1.000000" stroke="none" 
	d="
M512.333313,494.764160 
	C507.079956,486.381317 507.194489,478.210541 511.544891,469.918762 
	C513.003479,467.138794 515.162720,466.449036 518.176270,466.915344 
	C527.842468,468.410858 527.885925,468.337646 529.570435,478.510101 
	C529.975403,480.955780 530.244934,483.447968 530.289246,485.923920 
	C530.368774,490.370392 528.755249,494.556488 524.783142,496.350311 
	C520.903870,498.102142 516.351440,498.302216 512.333313,494.764160 
z"/>
<path fill="#000000" opacity="1.000000" stroke="none" 
	d="
M555.982422,408.373352 
	C557.199951,403.709015 558.701660,400.608582 564.294006,400.511902 
	C570.108765,400.411377 572.796265,402.928741 574.396545,407.924316 
	C576.168213,413.454468 576.308228,419.030334 575.091980,424.625000 
	C574.435120,427.646301 572.663208,429.297241 569.139343,429.402191 
	C557.237488,429.756653 552.799988,424.625763 555.085938,412.679718 
	C555.335266,411.376617 555.608276,410.078094 555.982422,408.373352 
z"/>
<path fill="#000000" opacity="1.000000" stroke="none" 
	d="
M654.929932,539.416260 
	C655.264221,540.614319 655.457336,541.423157 655.646240,542.232971 
	C657.355164,549.560425 656.734009,550.433777 649.374390,550.393127 
	C644.837158,550.368103 640.296509,550.052612 640.825195,556.784912 
	C640.902039,557.763855 640.263977,558.636169 639.176086,559.042908 
	C635.283386,560.498474 628.624390,556.768433 627.621094,552.542725 
	C625.979553,545.628723 623.292847,539.305664 617.936035,534.328857 
	C607.091003,524.253174 588.356750,528.024475 582.569092,541.509155 
	C580.320251,546.748657 579.367981,552.322815 578.319336,557.872864 
	C577.652466,561.401855 571.487305,564.850342 566.857300,563.909180 
	C562.953125,563.115540 562.986511,559.600952 563.121277,556.693787 
	C563.822571,541.559448 568.770142,528.380188 579.618713,517.194153 
	C590.788452,505.676971 609.800293,507.049316 620.331665,513.257935 
	C624.295349,515.594727 627.747314,518.880981 631.182312,522.009216 
	C634.367310,524.909790 637.588440,527.981812 636.359192,532.862427 
	C639.509277,533.902405 641.980408,532.969666 644.319580,532.542969 
	C652.014221,531.139282 651.825684,530.709290 654.929932,539.416260 
z"/>
<path fill="#000000" opacity="1.000000" stroke="none" 
	d="
M398.558319,522.563904 
	C413.516785,503.821930 439.021515,504.301270 453.359650,523.214722 
	C461.053223,533.363403 465.152496,544.621216 465.356842,557.419067 
	C465.459839,563.869812 460.341034,562.249634 457.035583,563.526855 
	C453.332184,564.957947 452.538666,562.388428 451.581940,559.709045 
	C449.127716,552.835938 447.099518,545.858337 443.648743,539.291748 
	C436.217529,525.150513 414.121765,526.450562 407.121033,538.083984 
	C403.833893,543.546265 401.007355,549.121094 399.030792,555.162598 
	C398.378235,557.157288 397.918671,559.898621 394.946106,559.122253 
	C391.765137,558.291443 386.969635,559.629456 385.891663,555.506409 
	C384.706848,550.974731 382.019775,550.880371 378.514435,550.839172 
	C372.150391,550.764404 372.153381,550.679993 372.660187,544.428772 
	C372.740875,543.433655 372.725189,542.425781 372.874207,541.442078 
	C373.296082,538.657166 373.098480,535.494446 374.403900,533.195557 
	C376.243042,529.956726 379.537903,533.023010 382.202484,532.675964 
	C389.095032,531.778137 394.286255,528.295898 398.558319,522.563904 
z"/>
</svg>